<!-- icon666.com - MILLIONS OF FREE VECTOR ICONS --><svg id="solid" viewBox="0 0 128 128" xmlns="http://www.w3.org/2000/svg"><g><path d="m102.756 71.866c.141-.7.756-1.203 1.47-1.203h10.788v-13.326h-10.788c-.714 0-1.329-.503-1.47-1.203-1.008-4.994-2.958-9.694-5.794-13.971-.395-.595-.315-1.385.189-1.89l7.634-7.633-9.424-9.425-7.634 7.636c-.503.506-1.295.586-1.891.188-4.269-2.835-8.969-4.785-13.969-5.796-.7-.142-1.203-.757-1.203-1.471v-10.786h-13.327v10.787c0 .714-.503 1.329-1.203 1.471-4.997 1.01-9.697 2.959-13.97 5.794-.595.394-1.385.314-1.89-.189l-7.634-7.633-9.424 9.422 7.635 7.636c.505.505.584 1.296.189 1.891-2.835 4.268-4.786 8.968-5.796 13.97-.141.7-.756 1.203-1.47 1.203h-10.787l-.001 13.325 6.665-.002 4.125.003c.714.001 1.328.504 1.469 1.203 1.008 4.999 2.958 9.699 5.794 13.97.395.595.316 1.386-.189 1.891l-7.633 7.633 9.421 9.425 7.634-7.633c.506-.505 1.295-.583 1.89-.189 4.275 2.837 8.976 4.786 13.971 5.794.7.142 1.204.757 1.204 1.471v10.787h13.327v-10.787c0-.714.503-1.329 1.204-1.471 4.996-1.008 9.696-2.957 13.97-5.794.595-.395 1.384-.316 1.89.189l7.634 7.633 9.423-9.422-7.634-7.636c-.505-.505-.584-1.296-.189-1.891 2.836-4.273 4.786-8.973 5.794-13.971zm-38.756 15.698c-12.994 0-23.565-10.571-23.565-23.564s10.572-23.564 23.565-23.564 23.564 10.571 23.564 23.564-10.57 23.564-23.564 23.564z" fill="#000000" style="fill: rgb(73, 178, 102);"></path><path d="m64 43.436c-11.339 0-20.565 9.226-20.565 20.564s9.226 20.564 20.565 20.564 20.564-9.226 20.564-20.564-9.225-20.564-20.564-20.564zm0 33.043c-6.881 0-12.479-5.598-12.479-12.479s5.599-12.479 12.479-12.479 12.478 5.598 12.478 12.479-5.597 12.479-12.478 12.479z" fill="#000000" style="fill: rgb(73, 178, 102);"></path></g></svg>